<?xml version="1.0" standalone="no"?>
<!DOCTYPE svg PUBLIC "-//W3C//DTD SVG 20010904//EN"
 "http://www.w3.org/TR/2001/REC-SVG-20010904/DTD/svg10.dtd">
<svg version="1.0" xmlns="http://www.w3.org/2000/svg"
 width="32pt" height="32pt" viewBox="8 8 66 57"
 preserveAspectRatio="xMidYMid meet">

<g transform="translate(0.000000,71.000000) scale(0.100000,-0.100000)"
fill="#D06E3D" stroke="none">
<path d="M315 648 c-143 -50 -229 -161 -229 -298 0 -96 27 -164 88 -226 158
-158 428 -111 518 90 34 77 33 202 -4 271 -69 132 -243 207 -373 163z m25
-192 c0 -35 -25 -52 -55 -38 -31 14 -32 46 -3 66 27 19 58 5 58 -28z m198 6
c4 -25 -13 -52 -32 -52 -28 0 -49 27 -42 54 6 24 11 27 39 24 25 -2 33 -8 35
-26z m69 -133 c15 -15 -2 -74 -34 -121 -32 -47 -111 -88 -170 -88 -91 0 -173
59 -198 144 -19 65 -19 68 7 64 16 -2 24 -12 29 -35 15 -77 74 -123 157 -123
29 0 66 7 81 15 33 17 81 70 81 90 0 21 19 65 28 65 4 0 13 -5 19 -11z"/>
</g>
</svg>
