<svg xmlns="http://www.w3.org/2000/svg" viewBox="37 50 467 68" height="24" width="85" xml:space="preserve"><defs><clipPath id="a" clipPathUnits="userSpaceOnUse"><path d="M0 116.058h395.62V0H0z"/></clipPath></defs><g clip-path="url(#a)" transform="matrix(1.33333 0 0 -1.33333 0 154.744)"><path style="fill:#515455;fill-opacity:1;fill-rule:nonzero;stroke:none" d="M0 0c.287-.192.573-.454.859-.788.287-.335.573-.644.859-.93-.192-.096-.383-.193-.572-.286-.193-.097-.383-.193-.573-.287A7.58 7.58 0 0 0-.429-2.72c-.193-.096-.55-.239-1.074-.43a41.39 41.39 0 0 1-1.646-.644 16.372 16.372 0 0 0-1.575-.573c-.479-.143-.765-.215-.859-.215 1.525 1.146 2.552 1.934 3.078 2.363.523.429.859.716 1.002.859.143.143.262.286.358.429.094.143.477.501 1.145 1.074zm-17.895-33.5c.19-.382.452-.716.787-1.002.334-.287.595-.669.788-1.145-.573-.193-1.195-.193-1.862 0a7.856 7.856 0 0 1-2.147.286l-3.865.429a58.694 58.694 0 0 0 2.004 1.647c.667.523 1.336 1.12 2.004 1.789.381 0 .763-.214 1.145-.644.381-.429.764-.883 1.146-1.36m-3.722 68.288c-.479-.572-.955-1.145-1.432-1.718a30.466 30.466 0 0 1-1.431-1.861c-.287-.286-.43-.479-.43-.572 0 1.621.237 3.386.716 5.297.19.38.333.619.429.715.381.381.716.62 1.002.716.477.19.907.309 1.289.358.38.047.809.119 1.288.215 1.909.286 3.866.523 5.87.716a40.85 40.85 0 0 0 5.87.143c2.098 0 4.127-.168 6.084-.501a21.772 21.772 0 0 0 5.655-1.79 44.183 44.183 0 0 0 2.29-1.073c.859-.43 1.526-.98 2.005-1.647.094-.096.094-.239 0-.43a23.88 23.88 0 0 0-1.146-1.073 7.246 7.246 0 0 1-1.002-1.074 19.52 19.52 0 0 0-1.073-1.002c-.336-.286-.645-.669-.931-1.145a42.778 42.778 0 0 1-1.432 2.147c-.478.667-.955 1.335-1.431 2.004 0 .191-.05.309-.143.358-.097.047-.143.166-.143.358L0 34.502c-.192.38-.525.477-1.002.286-.192-.096-.526-.382-1.002-.859l-3.436-3.865a19.506 19.506 0 0 0-1.861 2.147 32.117 32.117 0 0 0-1.575 2.291c-.382.763-.812 1.145-1.289 1.145-.286 0-.621-.192-1.002-.572a84.781 84.781 0 0 1-4.867-5.298c-1.624 1.146-2.769 2.721-3.436 4.725-.192.19-.311.38-.358.573-.049.19-.168.286-.358.286-.382.19-.858 0-1.431-.573m.716-9.162c-.383.19-1.052-.264-2.005-1.36a55.643 55.643 0 0 0-2.576-2.792c.286.859.357 1.74.214 2.649a7 7 0 0 0 .072 2.648c.093.287.165.523.215.716.046.19.118.38.214.573a13.96 13.96 0 0 0 1.718 2.648c.667.81 1.382 1.597 2.148 2.362.476-.859 1.145-1.814 2.004-2.863.859-1.051 1.812-1.767 2.863-2.147.19 0 .38.071.573.214.19.143.38.309.572.501a27.438 27.438 0 0 1 2.363 2.363c.715.809 1.453 1.646 2.218 2.505a96.095 96.095 0 0 0 1.933-2.577 32.85 32.85 0 0 1 1.933-2.434c.286-.286.524-.478.716-.572.38-.097.763.143 1.145.715a65.697 65.697 0 0 1 1.861 1.933c.573.62 1.192 1.264 1.861 1.933A59.53 59.53 0 0 1 .645 30.35a31.281 31.281 0 0 0 1.502-2.433c.573-.573 1.003-.859 1.289-.859.38.19.62.333.716.429a60.612 60.612 0 0 0 2.433 2.577l2.435 2.434a12.65 12.65 0 0 0 2.003-1.861c.573-.669 1.097-1.528 1.576-2.577.38-.956.737-1.861 1.073-2.721.333-.859.644-1.767.931-2.719.094-.193-.121-.144-.645.143-.525.286-1.552 1.145-3.078 2.576-.765.381-1.288.524-1.574.43-.097 0-.358-.239-.787-.716a55.59 55.59 0 0 1-1.361-1.574 24.498 24.498 0 0 0-1.503-1.647c-.526-.525-.884-.883-1.073-1.074 0 .095-.287.405-.86.931a52.739 52.739 0 0 0-1.789 1.718c-.622.619-1.503 1.407-2.649 2.362-.192 0-.525-.239-1.002-.716l-2.577-3.436c-.192.191-.525.573-1.002 1.146a25.85 25.85 0 0 1-1.575 1.717 55.631 55.631 0 0 1-1.717 1.647c-.573.523-.956.788-1.146.788-.286.093-.669-.097-1.145-.573a19.112 19.112 0 0 1-1.503-1.718 232.863 232.863 0 0 1-1.504-1.933 28.096 28.096 0 0 1-1.002-1.36c-.286.19-.715.523-1.288 1.002-.573.477-1.17.953-1.79 1.432-.621.476-1.217.906-1.789 1.288-.573.381-.955.573-1.145.573m35.504-6.013c.094-.096.118-.407.071-.93a13.082 13.082 0 0 0-.286-1.719 11.312 11.312 0 0 0-.573-1.789c-.239-.572-.454-.908-.644-1.002 0-.096-.096-.049-.286.143a25.451 25.451 0 0 0-.931 1.718c-.335.667-.787 1.096-1.36 1.288-.192.191-.383.191-.573 0l-.572-.572a349.096 349.096 0 0 1-1.861-2.147 307.802 307.802 0 0 0-1.861-2.148c-.766.859-1.553 1.718-2.363 2.577-.812.859-1.646 1.718-2.505 2.577-.479.573-1.051.523-1.718-.143a75.134 75.134 0 0 0-1.789-2.291 85.775 85.775 0 0 0-1.933-2.291l-4.724 4.725c-.669.666-1.385.666-2.148 0a28.993 28.993 0 0 1-2.147-2.076 88.355 88.355 0 0 1-2.004-2.219 44.665 44.665 0 0 0-2.148 2.29 49.422 49.422 0 0 1-2.147 2.291c-.383.38-.716.573-1.002.573-.383 0-.669-.193-.859-.573a14.796 14.796 0 0 1-2.005-1.79 61.664 61.664 0 0 0-1.717-1.789l-.287-.429v3.292c0 .667.094 1.383.287 2.148.19 0 .476.19.858.572a12.528 12.528 0 0 0 1.861 2.005 12.49 12.49 0 0 1 1.862 2.004c.762-.573 1.525-1.145 2.29-1.718l2.291-1.718c.762-.573 1.431-.765 2.004-.573.19 0 .477.19.859.573a28.933 28.933 0 0 0 1.575 2.004 96.63 96.63 0 0 1 2.004 2.434v.143-.143l4.581-4.581c.191-.096.334-.192.43-.287.094-.096.237-.143.429-.143.19-.192.405-.192.645 0 .236.19.451.381.644.573.476.477.905.978 1.288 1.503.381.524.716 1.025 1.002 1.504a97.12 97.12 0 0 0 2.219-2.005 86.814 86.814 0 0 1 2.219-2.004c.287-.286.573-.429.859-.429.19-.097.43-.072.716.071s.523.309.716.501a23.79 23.79 0 0 1 3.865 4.295l2.291-1.718a14.196 14.196 0 0 0 2.147-2.004c.19-.193.333-.383.43-.573m-28.346-48.675c.38.19.716.43 1.002.716.286.286.619.573 1.002.859 0-.573-.025-1.123-.072-1.647a17.75 17.75 0 0 1-.071-1.646c-.097-.573-.143-1.481-.143-2.72 0-1.242-.097-1.958-.287-2.147-.096 0-.143-.05-.143-.144 0-.096-.049-.143-.143-.143-.096-.192-.358-.239-.787-.143-.43.094-.694.143-.788.143-.286.287-.43.476-.43.573-.668.953-1.337 1.883-2.003 2.792a12.025 12.025 0 0 1-2.291 2.361 11.4 11.4 0 0 1-.716.215 3.051 3.051 0 0 1-.716.072c-.382 0-.812-.239-1.288-.716a26.37 26.37 0 0 1-2.148-1.789 69.667 69.667 0 0 0-2.004-1.79c0 .19-.024.573-.071 1.146-.05.572-.072 1.145-.072 1.717v1.575c0 .477.094.81.286 1.002.763.763 1.55 1.526 2.362 2.291.81.763 1.597 1.526 2.363 2.291.19 0 .501-.215.93-.645a43.433 43.433 0 0 0 2.72-3.006c.43-.526.738-.931.931-1.217.38-.382.716-.573 1.002-.573.286-.192.548-.192.787 0 .238.191.501.381.788.573m26.055 41.517c0-.096.047-.168.143-.215.094-.049.144-.168.144-.358 0-.192-.097-.382-.287-.572a9.931 9.931 0 0 1-.429-1.289 3.224 3.224 0 0 0-.573-1.145c-.192-.192-.479-.407-.859-.645a39.016 39.016 0 0 1-1.002-.644 9.971 9.971 0 0 1-.93-.715 5.303 5.303 0 0 0-1.074-.716L6.442 5.154a5.552 5.552 0 0 0-.859-.716 25.973 25.973 0 0 0-2.075 1.718 14.652 14.652 0 0 0-1.79 2.004c-.383.381-.765.62-1.145.716a.794.794 0 0 1-.787-.143 7.989 7.989 0 0 1-.645-.573 20.277 20.277 0 0 0-1.718-1.789 21.17 21.17 0 0 1-1.718-1.79C-5.822 5.63-7.301 7.015-8.733 8.733c-.572.666-1.337.666-2.29 0-.765-.573-1.553-1.17-2.362-1.79a47.73 47.73 0 0 1-2.363-1.932 33.278 33.278 0 0 1-2.577 2.075 19.711 19.711 0 0 0-2.433 2.076c-.383.191-.694.309-.931.358-.239.047-.55-.121-.931-.501a68.426 68.426 0 0 1-1.932-1.718 22.136 22.136 0 0 1-1.79-1.861c0 .953-.024 1.933-.071 2.935a8.657 8.657 0 0 0 .358 2.935c.19.38.38.666.573.858a46.063 46.063 0 0 0 2.29 2.148 47.312 47.312 0 0 1 2.291 2.147l4.295-4.295c.189-.192.357-.357.501-.501.143-.143.308-.167.501-.071.286 0 .619.19 1.001.572l2.148 2.148a43.955 43.955 0 0 0 2.147 2.004 97.247 97.247 0 0 1 4.438-4.438c.953-.859 1.909-.765 2.864.286a20.292 20.292 0 0 0 1.574 1.934 19.858 19.858 0 0 1 1.576 1.932 77.749 77.749 0 0 1 2.147-2.362 97.64 97.64 0 0 1 2.291-2.362c.379-.383.762-.573 1.145-.573.38 0 .858.286 1.431.859a340.348 340.348 0 0 0 3.15 3.722 7.45 7.45 0 0 0 .429-.715c.094-.193.238-.43.43-.716.19-.287.38-.551.572-.788.191-.239.381-.454.573-.644M-11.31-10.451c-.096-.096-.143-.454-.143-1.074v-5.941c0-.479-.143-.812-.429-1.002a59.18 59.18 0 0 0-1.074-.787 7.93 7.93 0 0 0-1.074-.644c-.192.379-.573.952-1.145 1.717a27.573 27.573 0 0 1-1.861 2.219c-.669.716-1.36 1.36-2.076 1.933-.716.572-1.313.81-1.789.716-.193 0-.551-.215-1.074-.644a37.955 37.955 0 0 1-1.718-1.503 56.915 56.915 0 0 1-1.718-1.647l-1.074-1.074c0 .859-.024 1.718-.071 2.577a45.238 45.238 0 0 0-.072 2.577v.286c.094.287.38.645.859 1.074.477.43 1.002.881 1.575 1.36.572.476 1.168.931 1.789 1.36.62.43 1.074.739 1.361.931a27.48 27.48 0 0 0 2.719-2.505c.859-.909 1.719-1.79 2.577-2.649a1.05 1.05 0 0 1 .287-.215c.094-.049.19-.12.286-.215.19-.096.38-.071.572.072.191.143.381.309.573.501h.143zm17.895 13.6c.287.287.667.644 1.146 1.074.477.43.953.788 1.432 1.074-.383-.479-.716-1.123-1.002-1.933-.287-.812-.812-1.456-1.576-1.932A21.33 21.33 0 0 1 4.939.215 12.945 12.945 0 0 0 3.15-1.002a6.6 6.6 0 0 1-2.291 2.29c-.096.191-.336.38-.715.573-.479 0-.812-.193-1.003-.573A37.23 37.23 0 0 1-3.722-.716a26.376 26.376 0 0 1-2.434-2.147c-.478.572-.93 1.167-1.36 1.789-.429.62-.883 1.217-1.36 1.79-.192.19-.358.358-.501.501-.143.143-.358.215-.644.215-.192.093-.407.071-.645-.072a20.084 20.084 0 0 1-.787-.501 55.947 55.947 0 0 0-2.434-2.291 29.105 29.105 0 0 1-2.433-2.434 50.056 50.056 0 0 0-2.219 2.363A54.428 54.428 0 0 1-20.758.859c-.479.476-.859.716-1.146.716-.192-.096-.31-.168-.358-.215-.049-.049-.167-.121-.358-.215a42.03 42.03 0 0 1-2.075-1.933l-1.933-1.932v2.433c0 .86.047 1.669.143 2.434 0 .38.047.667.143.859 0 .19.048.286.144.286.094 0 .143.095.143.287l2.147 2.148a19.928 19.928 0 0 0 2.148 1.86 133.98 133.98 0 0 1 5.44-4.008c0-.192.143-.287.429-.287.38 0 .667.095.859.287a156.98 156.98 0 0 0 2.649 2.076c.809.619 1.646 1.263 2.505 1.932 1.432-1.624 2.863-3.006 4.295-4.151.953-.669 1.861-.526 2.72.429a24.54 24.54 0 0 1 3.15 3.15 52.208 52.208 0 0 1 4.295-3.866c.379-.382.762-.525 1.145-.429.286 0 .572.143.858.429m-18.324-23.908c.19-.859.309-1.599.358-2.219.047-.622-.025-1.313-.215-2.076-.096-.286-.311-.55-.644-.787a34.318 34.318 0 0 0-.931-.644c-.286-.286-.572-.55-.859-.787a9.623 9.623 0 0 0-.859-.645 82.569 82.569 0 0 0-2.147 2.219 94.969 94.969 0 0 1-2.148 2.219c-.382.667-.858 1.002-1.431 1.002-.479 0-.955-.239-1.432-.715a102.044 102.044 0 0 1-2.076-1.862 63.256 63.256 0 0 1-1.932-1.861c-.193.667-.358 1.765-.501 3.293-.144 1.526-.072 2.577.214 3.15l.144.143 2.719 2.72a70.918 70.918 0 0 0 2.721 2.577 18.585 18.585 0 0 0 2.863-2.577 37.967 37.967 0 0 0 2.434-3.006c.094-.383.38-.716.858-1.003.477-.192.954-.071 1.432.358.477.43.953.739 1.432.931zm4.581 16.464v-.143c.19-.287.262-.43.215-.43-.049 0-.215-.049-.501-.143-.286-.096-.716-.143-1.289-.143-.096-.096-.525-.143-1.288-.143-.383 0-.765-.049-1.146-.143v-2.148c0-.286-.049-.478-.143-.572-.286-.573-.812-1.17-1.574-1.79-.765-.622-1.432-1.17-2.005-1.646a54.772 54.772 0 0 0-2.433 2.29c-.765.763-1.528 1.526-2.291 2.291-.573.573-1.052.859-1.431.859-.287 0-.623-.193-1.003-.573a66.19 66.19 0 0 1-4.581-3.722v2.147c0 .477-.049.978-.143 1.504a2.667 2.667 0 0 0 .143 1.503c0 .19.094.286.286.286.763.859 1.504 1.669 2.219 2.434a36.274 36.274 0 0 0 2.363 2.29 48.907 48.907 0 0 0 2.147-2.29 45.55 45.55 0 0 1 2.147-2.291c.191-.382.477-.572.86-.572a.901.901 0 0 1 .787.071c.237.143.452.309.644.501l5.154 4.725c.476-.765.93-1.432 1.36-2.004.43-.573.881-1.242 1.36-2.005z" transform="translate(54.318 50.89)"/><path style="fill:#515455;fill-opacity:1;fill-rule:nonzero;stroke:none" d="M0 0a12.228 12.228 0 0 1-2.72-2.72 38.481 38.481 0 0 1-2.148-3.293c3.15-.192 6.322-.335 9.52-.429a321.97 321.97 0 0 1 9.664-.143 37.364 37.364 0 0 0-.716 3.149 6.527 6.527 0 0 1-1.288 2.864C10.594.667 8.589 1.407 6.299 1.646 4.008 1.884 1.908 1.335 0 0m29.491-33.213c-2.387-3.436-5.512-6.181-9.377-8.232-3.865-2.054-7.946-2.841-12.24-2.362-4.201.38-8.304 1.407-12.312 3.078-4.009 1.668-7.494 4.031-10.451 7.086-2.863 3.34-4.509 7.134-4.939 11.382-.43 4.245-.454 8.374-.072 12.383.477 3.722 1.575 7.324 3.293 10.809a27.325 27.325 0 0 0 7.015 8.947c2.481 2.195 5.368 3.745 8.661 4.653a22.638 22.638 0 0 0 9.95.501c3.34-.478 6.585-1.599 9.735-3.364 3.15-1.767 5.391-4.319 6.728-7.659 1.05-2.77 1.79-5.727 2.22-8.876.429-3.15-.025-6.109-1.36-8.876-.86-2.005-2.316-3.579-4.367-4.725-2.053-1.145-4.176-1.671-6.371-1.574-3.628 0-7.325.046-11.095.143-3.771.094-7.516.286-11.238.572.094-1.431.501-2.697 1.217-3.794a11.55 11.55 0 0 1 2.649-2.863A17.728 17.728 0 0 1 .572-28.06a29.546 29.546 0 0 1 3.722-1.431 30.389 30.389 0 0 1 4.653-.787 8.618 8.618 0 0 1 4.51.787 15.966 15.966 0 0 1 3.65 2.505c1.097 1.002 2.22 2.027 3.365 3.078a207.208 207.208 0 0 1 4.581-4.724 205.013 205.013 0 0 0 4.438-4.581" transform="translate(86.815 59.48)"/><path style="fill:#515455;fill-opacity:1;fill-rule:nonzero;stroke:none" d="M0 0a12.228 12.228 0 0 1-2.72-2.72 38.481 38.481 0 0 1-2.148-3.293c3.15-.192 6.322-.335 9.52-.429a321.97 321.97 0 0 1 9.664-.143 37.364 37.364 0 0 0-.716 3.149 6.527 6.527 0 0 1-1.288 2.864C10.594.667 8.589 1.407 6.299 1.646 4.008 1.884 1.908 1.335 0 0m29.491-33.213c-2.387-3.436-5.512-6.181-9.377-8.232-3.865-2.054-7.946-2.841-12.24-2.362-4.201.38-8.304 1.407-12.312 3.078-4.009 1.668-7.494 4.031-10.451 7.086-2.863 3.34-4.509 7.134-4.939 11.382-.43 4.245-.454 8.374-.072 12.383.477 3.722 1.575 7.324 3.293 10.809a27.325 27.325 0 0 0 7.015 8.947c2.481 2.195 5.368 3.745 8.661 4.653a22.638 22.638 0 0 0 9.95.501c3.34-.478 6.585-1.599 9.735-3.364 3.15-1.767 5.391-4.319 6.728-7.659 1.05-2.77 1.79-5.727 2.22-8.876.429-3.15-.025-6.109-1.36-8.876-.86-2.005-2.316-3.579-4.367-4.725-2.053-1.145-4.176-1.671-6.371-1.574-3.628 0-7.325.046-11.095.143-3.771.094-7.516.286-11.238.572.094-1.431.501-2.697 1.217-3.794a11.55 11.55 0 0 1 2.649-2.863A17.728 17.728 0 0 1 .572-28.06a29.546 29.546 0 0 1 3.722-1.431 30.389 30.389 0 0 1 4.653-.787 8.618 8.618 0 0 1 4.51.787 15.966 15.966 0 0 1 3.65 2.505c1.097 1.002 2.22 2.027 3.365 3.078a207.208 207.208 0 0 1 4.581-4.724 205.013 205.013 0 0 0 4.438-4.581" transform="translate(137.779 59.48)"/><path style="fill:#515455;fill-opacity:1;fill-rule:nonzero;stroke:none" d="M0 0c.763 1.908 1.55 3.793 2.361 5.655a539.744 539.744 0 0 0 2.506 5.655c.477-4.295 1.55-8.375 3.221-12.241a562.788 562.788 0 0 0 4.939-11.811 160.265 160.265 0 0 0 5.155-15.532 108.916 108.916 0 0 1 5.439-15.247c.094-.193.262-.455.501-.788.237-.335.549-.407.931-.214.19.19.308.501.358.93.047.429.071.787.071 1.074 0 .859.023 1.693.072 2.505.047.81.119 1.646.215 2.505.19 1.622.405 3.269.644 4.94.237 1.668.501 3.315.787 4.939a121.529 121.529 0 0 0 2.219 11.023 376.684 376.684 0 0 0 2.935 11.024 704.545 704.545 0 0 0 2.935 10.808 275.678 275.678 0 0 1 2.792 10.809c.19.19.262.452.215.787-.05.334-.215.501-.502.501-.479.191-.812-.095-1.002-.859a906.264 906.264 0 0 1-7.802-27.987c-2.434-9.306-4.177-18.876-5.225-28.705a1103.222 1103.222 0 0 1-5.512 17.466A169.047 169.047 0 0 1 11.739-5.87 297.719 297.719 0 0 1 9.162.501a35.614 35.614 0 0 0-2.005 6.514 36.246 36.246 0 0 0-.428 3.006 18.708 18.708 0 0 1-.574 3.007c-.095.572-.357.952-.787 1.145-.43.19-.787-.096-1.073-.859A171.569 171.569 0 0 1-7.087-13.529a1049.509 1049.509 0 0 1-8.661-27.845l-15.032 58.41c-.193.667-.43 1.096-.716 1.289-.192.19-.407.237-.644.143-.239-.096-.407-.239-.501-.43v-.429c2.766-10.5 5.462-20.951 8.088-31.353 2.624-10.403 5.273-20.854 7.946-31.352.094-.193.19-.383.286-.573.094-.192.286-.286.573-.286.38 0 .666.333.859 1.002A281.787 281.787 0 0 0 0 0m17.466-52.541a640.692 640.692 0 0 0-7.732 25.483A4554.283 4554.283 0 0 0 2.576-1.289a1344.97 1344.97 0 0 1-4.151-16.177 1373.762 1373.762 0 0 0-4.152-16.177 324.737 324.737 0 0 1-2.434-9.163 62.888 62.888 0 0 0-3.006-9.019 274.444 274.444 0 0 0-6.013-.215 83.046 83.046 0 0 1-6.013-.357 2682.51 2682.51 0 0 0-9.735 37.508 504.835 504.835 0 0 0-8.017 37.938 45.193 45.193 0 0 0 8.733 1.431l8.876.573c5.248.477 10.473.644 15.676.501a342.509 342.509 0 0 1 15.677-.071c3.339.094 6.679.047 10.021-.144 3.34-.192 6.68-.286 10.022-.286a49.36 49.36 0 0 1 8.375.43c2.813.38 5.654.333 8.517-.144a321.915 321.915 0 0 0-1.789-15.532 2017.098 2017.098 0 0 0-2.219-15.39 2838.527 2838.527 0 0 0-5.798-23.049 1145.228 1145.228 0 0 1-5.655-23.05c-2.005-.19-4.009-.358-6.012-.501a263.745 263.745 0 0 0-6.013-.358" transform="translate(212.078 62.63)"/><path style="fill:#515455;fill-opacity:1;fill-rule:nonzero;stroke:none" d="M0 0a12.27 12.27 0 0 1-2.72-2.72 38.714 38.714 0 0 1-2.147-3.293c3.149-.192 6.321-.335 9.52-.429 3.197-.096 6.417-.143 9.663-.143a36.97 36.97 0 0 0-.715 3.149 6.55 6.55 0 0 1-1.288 2.864C10.595.667 8.59 1.407 6.3 1.646 4.009 1.884 1.908 1.335 0 0m29.491-33.213c-2.387-3.436-5.512-6.181-9.377-8.232-3.865-2.054-7.945-2.841-12.24-2.362-4.201.38-8.304 1.407-12.311 3.078-4.009 1.668-7.495 4.031-10.452 7.086-2.863 3.34-4.509 7.134-4.939 11.382-.429 4.245-.454 8.374-.071 12.383.476 3.722 1.575 7.324 3.293 10.809a27.31 27.31 0 0 0 7.014 8.947c2.481 2.195 5.369 3.745 8.661 4.653a22.642 22.642 0 0 0 9.951.501c3.339-.478 6.584-1.599 9.735-3.364 3.149-1.767 5.391-4.319 6.728-7.659 1.049-2.77 1.789-5.727 2.219-8.876.43-3.15-.024-6.109-1.36-8.876-.859-2.005-2.315-3.579-4.366-4.725-2.054-1.145-4.176-1.671-6.372-1.574-3.627 0-7.325.046-11.094.143-3.772.094-7.516.286-11.239.572.094-1.431.501-2.697 1.217-3.794a11.57 11.57 0 0 1 2.649-2.863A17.736 17.736 0 0 1 .573-28.06a29.487 29.487 0 0 1 3.722-1.431 30.348 30.348 0 0 1 4.653-.787 8.615 8.615 0 0 1 4.509.787 15.95 15.95 0 0 1 3.651 2.505c1.096 1.002 2.219 2.027 3.365 3.078a203.024 203.024 0 0 1 4.581-4.724 207.194 207.194 0 0 0 4.437-4.581" transform="translate(275.354 59.48)"/><path style="fill:#515455;fill-opacity:1;fill-rule:nonzero;stroke:none" d="M0 0a12.27 12.27 0 0 1-2.72-2.72 38.714 38.714 0 0 1-2.147-3.293c3.149-.192 6.321-.335 9.52-.429 3.197-.096 6.417-.143 9.663-.143a36.97 36.97 0 0 0-.715 3.149 6.55 6.55 0 0 1-1.288 2.864C10.595.667 8.59 1.407 6.3 1.646 4.009 1.884 1.908 1.335 0 0m29.491-33.213c-2.387-3.436-5.512-6.181-9.377-8.232-3.865-2.054-7.945-2.841-12.24-2.362-4.201.38-8.304 1.407-12.311 3.078-4.009 1.668-7.495 4.031-10.452 7.086-2.863 3.34-4.509 7.134-4.939 11.382-.429 4.245-.454 8.374-.071 12.383.476 3.722 1.575 7.324 3.293 10.809a27.31 27.31 0 0 0 7.014 8.947c2.481 2.195 5.369 3.745 8.661 4.653a22.642 22.642 0 0 0 9.951.501c3.339-.478 6.584-1.599 9.735-3.364 3.149-1.767 5.391-4.319 6.728-7.659 1.049-2.77 1.789-5.727 2.219-8.876.43-3.15-.024-6.109-1.36-8.876-.859-2.005-2.315-3.579-4.366-4.725-2.054-1.145-4.176-1.671-6.372-1.574-3.627 0-7.325.046-11.094.143-3.772.094-7.516.286-11.239.572.094-1.431.501-2.697 1.217-3.794a11.57 11.57 0 0 1 2.649-2.863A17.736 17.736 0 0 1 .573-28.06a29.487 29.487 0 0 1 3.722-1.431 30.348 30.348 0 0 1 4.653-.787 8.615 8.615 0 0 1 4.509.787 15.95 15.95 0 0 1 3.651 2.505c1.096 1.002 2.219 2.027 3.365 3.078a203.024 203.024 0 0 1 4.581-4.724 207.194 207.194 0 0 0 4.437-4.581" transform="translate(326.318 59.48)"/><path style="fill:#515455;fill-opacity:1;fill-rule:nonzero;stroke:none" d="M0 0c-4.583 0-8.312 3.728-8.312 8.311h1.418A6.902 6.902 0 0 1 0 1.417a6.902 6.902 0 0 1 6.894 6.894h1.418C8.312 3.728 4.583 0 0 0m-4.009 14.798a1.521 1.521 0 1 0 .001-3.043 1.521 1.521 0 0 0-.001 3.043m7.998 0a1.522 1.522 0 1 0 0-3.044 1.522 1.522 0 0 0 0 3.044M-.01 21.799c-7.145 0-12.937-5.792-12.937-12.937S-7.155-4.076-.01-4.076 12.928 1.717 12.928 8.862c0 7.145-5.793 12.937-12.938 12.937" transform="translate(364.757 72.92)"/></g></svg>